<svg width="136.6" height="36.761" viewBox="0 0 136.6 36.761" 
xmlns="http://www.w3.org/2000/svg"><g id="svgGroup" stroke-linecap="round" 
fill-rule="evenodd" font-size="9pt" stroke="#000" stroke-width="0.25mm" 
fill="#db3998" style="stroke:#000;stroke-width:0.25mm;fill:#db3998">
<path d="M 53.2 13.601 L 52.52 12.881 Q 52.76 11.641 53.56 10.681 Q 54.36 9.721 55.52 9.161 Q 56.68 8.601 57.92 8.601 Q 59.32 8.601 60.36 9.501 A 2.517 2.517 0 0 1 61.014 10.427 Q 61.4 11.323 61.4 12.761 A 13.856 13.856 0 0 1 61.286 14.495 A 17.663 17.663 0 0 1 61.04 15.941 Q 60.68 17.641 60.32 19.141 Q 59.96 20.641 59.96 21.521 Q 59.96 22.321 60.3 22.701 A 1.276 1.276 0 0 0 60.566 22.931 A 0.942 0.942 0 0 0 61.08 23.081 A 1.26 1.26 0 0 0 61.521 22.994 Q 61.871 22.863 62.271 22.536 A 4.69 4.69 0 0 0 62.36 22.461 A 3.499 3.499 0 0 0 62.846 21.938 Q 63.271 21.384 63.666 20.521 A 11.88 11.88 0 0 0 63.72 20.401 Q 64.168 19.393 64.4 17.896 A 19.226 19.226 0 0 0 64.56 16.521 Q 64.64 15.761 64.68 14.581 Q 64.72 13.401 64.76 12.381 A 177.116 177.116 0 0 0 64.774 12.026 Q 64.798 11.372 64.8 11.155 A 3.872 3.872 0 0 0 64.8 11.121 A 3.033 3.033 0 0 1 64.893 10.342 A 1.918 1.918 0 0 1 65.86 9.101 A 4.777 4.777 0 0 1 68.12 8.521 A 5.605 5.605 0 0 1 68.2 8.521 Q 69.32 8.521 70.32 8.961 A 2.402 2.402 0 0 1 71.645 10.345 A 2.957 2.957 0 0 1 71.68 10.441 L 71.76 10.681 A 0.738 0.738 0 0 0 71.607 10.894 Q 71.343 11.403 71.14 12.841 A 117.799 117.799 0 0 0 71.004 13.838 Q 70.857 14.947 70.683 16.385 A 372.763 372.763 0 0 0 70.52 17.761 Q 70.296 19.628 69.967 21.948 A 280.366 280.366 0 0 1 69.92 22.281 Q 69.56 24.801 68.94 27.341 A 25.315 25.315 0 0 1 67.898 30.644 A 21.923 21.923 0 0 1 67.3 32.021 A 11.777 11.777 0 0 1 66.175 33.924 A 9.06 9.06 0 0 1 64.76 35.461 A 5.391 5.391 0 0 1 61.447 36.751 A 6.915 6.915 0 0 1 61.08 36.761 A 5.319 5.319 0 0 1 59.637 36.575 A 3.999 3.999 0 0 1 57.86 35.541 A 4.062 4.062 0 0 1 56.753 33.429 A 5.925 5.925 0 0 1 56.64 32.241 Q 56.64 31.228 56.974 30.023 A 11.845 11.845 0 0 1 57.02 29.861 Q 57.4 28.561 58.28 27.121 A 5.684 5.684 0 0 1 56.673 26.8 A 4.596 4.596 0 0 1 55.06 25.801 A 3.75 3.75 0 0 1 54.096 24.234 Q 53.8 23.343 53.8 22.161 A 12.484 12.484 0 0 1 53.92 20.471 A 16.094 16.094 0 0 1 54.18 19.061 Q 54.56 17.401 54.92 15.941 A 19.104 19.104 0 0 0 55.094 15.172 Q 55.245 14.426 55.274 13.906 A 4.178 4.178 0 0 0 55.28 13.681 A 2.366 2.366 0 0 0 55.262 13.378 Q 55.214 13.01 55.04 12.821 A 0.865 0.865 0 0 0 54.832 12.653 A 0.702 0.702 0 0 0 54.48 12.561 Q 54.16 12.561 53.78 12.821 A 1.447 1.447 0 0 0 53.371 13.254 A 2.01 2.01 0 0 0 53.2 13.601 Z M 101.387 29.026 A 14.937 14.937 0 0 0 103.12 29.121 A 16.816 16.816 0 0 0 104.359 29.076 A 14.198 14.198 0 0 0 108.44 28.181 Q 110.88 27.241 112.34 25.701 A 6.26 6.26 0 0 0 113.029 24.839 A 4.432 4.432 0 0 0 113.8 22.361 Q 113.8 21.041 113.04 20.121 A 6.658 6.658 0 0 0 112.231 19.302 A 8.475 8.475 0 0 0 111.08 18.481 A 26.376 26.376 0 0 0 110.701 18.258 A 29.33 29.33 0 0 0 108.52 17.121 Q 107.52 16.641 106.58 16.101 Q 105.64 15.561 105.02 14.861 Q 104.4 14.161 104.4 13.201 A 2.827 2.827 0 0 1 104.401 13.11 Q 104.41 12.835 104.473 12.606 A 1.412 1.412 0 0 1 104.88 11.921 A 1.615 1.615 0 0 1 105.482 11.57 A 1.938 1.938 0 0 1 106.08 11.481 A 2.084 2.084 0 0 1 106.495 11.522 Q 106.945 11.613 107.37 11.905 A 3.632 3.632 0 0 1 107.96 12.421 A 2.684 2.684 0 0 1 108.487 13.272 Q 108.802 14.061 108.802 15.226 A 8.943 8.943 0 0 1 108.8 15.401 A 12.8 12.8 0 0 0 108.823 15.401 Q 110.32 15.398 111.349 15.044 A 3.746 3.746 0 0 0 112.48 14.441 Q 112.911 14.096 113.188 13.72 A 2.384 2.384 0 0 0 113.68 12.281 Q 113.68 11.275 112.874 10.351 A 5.722 5.722 0 0 0 112.12 9.641 Q 111.023 8.769 109.175 8.51 A 12.252 12.252 0 0 0 107.48 8.401 A 13.014 13.014 0 0 0 106.81 8.418 A 14.469 14.469 0 0 0 104.12 8.821 Q 102.4 9.241 100.92 10.061 A 8.641 8.641 0 0 0 100.133 10.552 A 7.025 7.025 0 0 0 98.54 12.081 Q 97.64 13.281 97.64 14.841 A 5.243 5.243 0 0 0 97.682 15.512 A 4.039 4.039 0 0 0 98.4 17.381 Q 99.16 18.441 100.24 19.181 Q 101.32 19.921 102.24 20.481 Q 103.392 21.132 104.277 21.705 A 22.256 22.256 0 0 1 105.24 22.361 Q 105.639 22.65 105.9 22.971 A 2.091 2.091 0 0 1 106.4 24.321 A 1.721 1.721 0 0 1 106.23 25.087 A 1.823 1.823 0 0 1 105.78 25.661 A 2.118 2.118 0 0 1 105 26.094 A 2.587 2.587 0 0 1 104.24 26.201 Q 103.777 26.201 103.291 26.008 A 3.82 3.82 0 0 1 102.66 25.681 Q 102.122 25.34 101.713 24.697 A 5.218 5.218 0 0 1 101.32 23.941 A 5.421 5.421 0 0 1 101.037 23.06 Q 100.915 22.545 100.856 21.931 A 13.075 13.075 0 0 1 100.8 20.681 A 8.793 8.793 0 0 0 100.527 20.685 Q 98.399 20.751 97.12 21.861 A 4.809 4.809 0 0 0 96.524 22.473 A 3.252 3.252 0 0 0 95.76 24.561 A 3.126 3.126 0 0 0 96.057 25.87 A 4.46 4.46 0 0 0 96.56 26.701 A 4.13 4.13 0 0 0 96.905 27.101 Q 97.681 27.894 99 28.441 Q 100.028 28.867 101.387 29.026 Z M 50.8 10.641 L 50.88 10.881 A 0.766 0.766 0 0 0 50.722 11.1 Q 50.461 11.6 50.26 12.961 A 83.235 83.235 0 0 0 50.124 13.926 Q 49.977 15.009 49.803 16.453 A 298.117 298.117 0 0 0 49.64 17.841 A 174.033 174.033 0 0 1 49.407 19.659 Q 49.243 20.895 49.04 22.301 Q 48.68 24.801 48.06 27.341 Q 47.44 29.881 46.44 32.021 A 11.49 11.49 0 0 1 45.32 33.937 A 8.888 8.888 0 0 1 43.92 35.461 A 5.391 5.391 0 0 1 40.607 36.751 A 6.915 6.915 0 0 1 40.24 36.761 A 5.44 5.44 0 0 1 38.707 36.554 A 4.312 4.312 0 0 1 37 35.601 A 3.777 3.777 0 0 1 35.848 33.566 A 5.719 5.719 0 0 1 35.72 32.321 Q 35.72 30.687 36.542 28.641 A 19.15 19.15 0 0 1 37.32 26.961 Q 37.04 27.041 36.76 27.081 Q 36.48 27.121 36.2 27.121 A 4.652 4.652 0 0 1 32.68 25.547 A 6.673 6.673 0 0 1 32.3 25.101 A 6.813 6.813 0 0 1 31.166 22.86 Q 30.873 21.898 30.773 20.743 A 14.55 14.55 0 0 1 30.72 19.481 Q 30.72 16.241 31.98 13.761 Q 33.24 11.281 35.2 9.881 A 7.88 7.88 0 0 1 37.073 8.876 A 6.384 6.384 0 0 1 39.28 8.481 Q 40.76 8.481 41.96 9.221 A 4.476 4.476 0 0 1 43.133 10.29 Q 43.511 10.772 43.82 11.394 A 8.125 8.125 0 0 1 43.92 11.601 A 8.738 8.738 0 0 0 43.949 11.243 Q 43.959 11.075 43.96 10.924 A 5.248 5.248 0 0 0 43.96 10.881 L 43.96 10.281 A 0.888 0.888 0 0 1 44.212 9.67 Q 44.472 9.384 45 9.161 A 5.579 5.579 0 0 1 46.6 8.758 A 6.889 6.889 0 0 1 47.32 8.721 A 5.38 5.38 0 0 1 49.132 9.023 A 5.085 5.085 0 0 1 49.48 9.161 A 2.359 2.359 0 0 1 50.346 9.792 A 2.375 2.375 0 0 1 50.8 10.641 Z M 94.16 10.481 L 94.24 10.721 Q 93.873 11.548 93.505 12.633 A 34.909 34.909 0 0 0 93.28 13.321 A 46.955 46.955 0 0 0 92.501 16.088 A 52.061 52.061 0 0 0 92.4 16.501 Q 92 18.161 91.76 19.741 A 24.438 24.438 0 0 0 91.614 20.872 Q 91.549 21.49 91.529 22.038 A 13.153 13.153 0 0 0 91.52 22.521 Q 91.52 23.841 91.8 24.341 A 1.458 1.458 0 0 0 91.952 24.565 Q 92.049 24.681 92.158 24.749 A 0.602 0.602 0 0 0 92.48 24.841 A 1.029 1.029 0 0 0 93.091 24.63 Q 93.412 24.399 93.702 23.912 A 4.133 4.133 0 0 0 93.72 23.881 L 94.04 24.041 Q 94.04 25.401 93.16 26.521 Q 92.28 27.641 90.96 28.301 A 6.357 6.357 0 0 1 89.475 28.835 A 5.391 5.391 0 0 1 88.32 28.961 Q 86.92 28.961 85.88 28.041 A 2.762 2.762 0 0 1 85.134 26.923 Q 84.84 26.146 84.84 25.041 L 84.84 24.641 Q 84.84 24.441 84.88 24.241 A 14.282 14.282 0 0 1 84.02 25.742 Q 83.164 27.033 82.18 27.781 A 6.325 6.325 0 0 1 81.008 28.496 Q 80.091 28.919 79.167 28.921 A 4.104 4.104 0 0 1 79.16 28.921 A 4.009 4.009 0 0 1 77.035 28.302 A 5.262 5.262 0 0 1 76.52 27.941 Q 75.406 27.06 74.679 25.421 A 10.226 10.226 0 0 1 74.52 25.041 A 10.128 10.128 0 0 1 73.974 23.065 Q 73.76 21.846 73.76 20.401 Q 73.76 17.601 74.54 15.401 A 13.397 13.397 0 0 1 75.494 13.284 A 10.491 10.491 0 0 1 76.6 11.681 A 10.256 10.256 0 0 1 78.017 10.284 A 8.151 8.151 0 0 1 79.4 9.381 A 7.524 7.524 0 0 1 80.807 8.821 A 5.749 5.749 0 0 1 82.36 8.601 Q 83.96 8.601 85.24 9.581 A 4.165 4.165 0 0 1 86.347 10.895 Q 86.656 11.452 86.863 12.154 A 8.43 8.43 0 0 1 87 12.681 Q 87.12 12.001 87.18 11.441 A 23.464 23.464 0 0 0 87.205 11.198 Q 87.234 10.898 87.239 10.741 A 1.874 1.874 0 0 0 87.24 10.681 A 1.752 1.752 0 0 1 87.5 9.795 Q 87.706 9.467 88.076 9.229 A 2.623 2.623 0 0 1 88.34 9.081 A 5.145 5.145 0 0 1 90.344 8.57 A 6.096 6.096 0 0 1 90.68 8.561 Q 91.8 8.561 92.8 9.001 A 2.402 2.402 0 0 1 94.125 10.385 A 2.957 2.957 0 0 1 94.16 10.481 Z M 136.52 10.481 L 136.6 10.721 Q 136.233 11.548 135.865 12.633 A 34.909 34.909 0 0 0 135.64 13.321 A 46.955 46.955 0 0 0 134.861 16.088 A 52.061 52.061 0 0 0 134.76 16.501 Q 134.36 18.161 134.12 19.741 A 24.438 24.438 0 0 0 133.974 20.872 Q 133.909 21.49 133.889 22.038 A 13.153 13.153 0 0 0 133.88 22.521 Q 133.88 23.841 134.16 24.341 A 1.458 1.458 0 0 0 134.312 24.565 Q 134.409 24.681 134.518 24.749 A 0.602 0.602 0 0 0 134.84 24.841 A 1.029 1.029 0 0 0 135.451 24.63 Q 135.772 24.399 136.062 23.912 A 4.133 4.133 0 0 0 136.08 23.881 L 136.4 24.041 Q 136.4 25.401 135.52 26.521 Q 134.64 27.641 133.32 28.301 A 6.357 6.357 0 0 1 131.835 28.835 A 5.391 5.391 0 0 1 130.68 28.961 Q 129.28 28.961 128.24 28.041 A 2.762 2.762 0 0 1 127.494 26.923 Q 127.2 26.146 127.2 25.041 L 127.2 24.641 Q 127.2 24.441 127.24 24.241 A 14.282 14.282 0 0 1 126.38 25.742 Q 125.524 27.033 124.54 27.781 A 6.325 6.325 0 0 1 123.368 28.496 Q 122.451 28.919 121.527 28.921 A 4.104 4.104 0 0 1 121.52 28.921 A 4.009 4.009 0 0 1 119.395 28.302 A 5.262 5.262 0 0 1 118.88 27.941 Q 117.766 27.06 117.039 25.421 A 10.226 10.226 0 0 1 116.88 25.041 A 10.128 10.128 0 0 1 116.334 23.065 Q 116.12 21.846 116.12 20.401 Q 116.12 17.601 116.9 15.401 A 13.397 13.397 0 0 1 117.854 13.284 A 10.491 10.491 0 0 1 118.96 11.681 A 10.256 10.256 0 0 1 120.377 10.284 A 8.151 8.151 0 0 1 121.76 9.381 A 7.524 7.524 0 0 1 123.167 8.821 A 5.749 5.749 0 0 1 124.72 8.601 Q 126.32 8.601 127.6 9.581 A 4.165 4.165 0 0 1 128.707 10.895 Q 129.016 11.452 129.223 12.154 A 8.43 8.43 0 0 1 129.36 12.681 Q 129.48 12.001 129.54 11.441 A 23.464 23.464 0 0 0 129.565 11.198 Q 129.594 10.898 129.599 10.741 A 1.874 1.874 0 0 0 129.6 10.681 A 1.752 1.752 0 0 1 129.86 9.795 Q 130.066 9.467 130.436 9.229 A 2.623 2.623 0 0 1 130.7 9.081 A 5.145 5.145 0 0 1 132.704 8.57 A 6.096 6.096 0 0 1 133.04 8.561 Q 134.16 8.561 135.16 9.001 A 2.402 2.402 0 0 1 136.485 10.385 A 2.957 2.957 0 0 1 136.52 10.481 Z M 7.2 28.001 L 7.2 25.881 Q 7.2 21.641 7.48 17.541 Q 7.76 13.441 9 9.641 A 5.162 5.162 0 0 1 11 8.86 A 6.967 6.967 0 0 1 12.2 8.761 Q 13.36 8.761 14.4 9.181 A 3.076 3.076 0 0 1 15.127 9.589 A 2.325 2.325 0 0 1 15.84 10.481 Q 14.72 13.881 14.1 17.401 Q 13.48 20.921 12.88 25.161 Q 12.56 27.361 12.14 29.441 A 19.791 19.791 0 0 1 11.566 31.648 A 15.68 15.68 0 0 1 10.98 33.181 A 7.071 7.071 0 0 1 10.036 34.747 A 5.915 5.915 0 0 1 8.94 35.801 Q 7.799 36.644 5.995 36.747 A 9.039 9.039 0 0 1 5.48 36.761 Q 3.799 36.761 2.593 36.159 A 4.808 4.808 0 0 1 2.48 36.101 A 5.595 5.595 0 0 1 1.484 35.433 A 4.211 4.211 0 0 1 0.62 34.441 Q 0 33.441 0 32.361 Q 0 30.761 1.38 29.461 Q 2.42 28.481 4.313 28.24 A 10.516 10.516 0 0 1 5.64 28.161 Q 5.2 28.946 4.958 29.608 A 6.246 6.246 0 0 0 4.84 29.961 Q 4.6 30.761 4.6 31.441 Q 4.6 32.082 4.765 32.526 A 1.645 1.645 0 0 0 5 32.961 Q 5.4 33.481 5.92 33.481 A 0.855 0.855 0 0 0 6.679 33.032 Q 6.909 32.661 7 31.981 Q 7.191 30.549 7.2 28.225 A 59.863 59.863 0 0 0 7.2 28.001 Z M 18.32 13.921 L 18.04 13.761 A 5.907 5.907 0 0 1 18.391 12.233 A 4.916 4.916 0 0 1 19.06 11.021 Q 19.92 9.881 21.18 9.241 Q 22.44 8.601 23.68 8.601 Q 25.2 8.601 26.32 9.581 Q 27.205 10.356 27.391 11.893 A 7.258 7.258 0 0 1 27.44 12.761 A 10.304 10.304 0 0 1 27.276 14.554 A 12.669 12.669 0 0 1 27.06 15.541 Q 26.68 17.001 26.18 18.441 Q 25.68 19.881 25.3 21.121 Q 25.027 22.013 24.95 22.719 A 4.841 4.841 0 0 0 24.92 23.241 Q 24.92 23.916 25.157 24.244 A 0.779 0.779 0 0 0 25.22 24.321 A 1.177 1.177 0 0 0 25.438 24.506 A 0.8 0.8 0 0 0 25.88 24.641 A 1.219 1.219 0 0 0 26.429 24.507 A 1.548 1.548 0 0 0 26.58 24.421 A 1.849 1.849 0 0 0 26.835 24.225 Q 26.973 24.096 27.062 23.951 A 1.129 1.129 0 0 0 27.08 23.921 L 27.36 24.001 A 4.727 4.727 0 0 1 27.141 25.461 A 4.105 4.105 0 0 1 26.58 26.581 Q 25.8 27.681 24.64 28.301 Q 23.48 28.921 22.24 28.921 A 4.083 4.083 0 0 1 19.537 27.905 A 5.217 5.217 0 0 1 19.44 27.821 A 3.334 3.334 0 0 1 18.53 26.441 Q 18.329 25.891 18.25 25.209 A 8.132 8.132 0 0 1 18.2 24.281 A 9.135 9.135 0 0 1 18.388 22.401 A 8.038 8.038 0 0 1 18.58 21.661 Q 18.96 20.441 19.46 19.281 Q 19.96 18.121 20.34 17.021 Q 20.72 15.921 20.72 14.841 Q 20.72 14.02 20.486 13.594 A 1.065 1.065 0 0 0 20.4 13.461 A 1.265 1.265 0 0 0 20.177 13.23 A 0.849 0.849 0 0 0 19.64 13.041 A 1.167 1.167 0 0 0 19.032 13.222 Q 18.67 13.44 18.32 13.921 Z M 81.8 23.881 A 1.475 1.475 0 0 0 82.519 23.673 Q 83.261 23.26 84.1 22.021 A 11.035 11.035 0 0 0 84.926 20.551 Q 85.676 18.965 86.28 16.681 A 57.912 57.912 0 0 1 86.438 15.991 A 54.257 54.257 0 0 1 86.44 15.981 Q 86.52 15.641 86.56 15.321 Q 85.967 13.951 85.323 13.318 A 2.725 2.725 0 0 0 85.22 13.221 Q 84.52 12.601 83.84 12.601 A 1.96 1.96 0 0 0 82.759 12.936 Q 82.47 13.124 82.194 13.416 A 4.346 4.346 0 0 0 81.98 13.661 A 7.314 7.314 0 0 0 81.157 14.94 Q 80.838 15.561 80.588 16.297 A 11.903 11.903 0 0 0 80.58 16.321 A 9.976 9.976 0 0 0 80.041 19.421 A 9.477 9.477 0 0 0 80.04 19.521 A 15.503 15.503 0 0 0 80.08 20.67 Q 80.181 22.025 80.54 22.801 Q 80.792 23.345 81.109 23.615 A 1.042 1.042 0 0 0 81.8 23.881 Z M 124.16 23.881 A 1.475 1.475 0 0 0 124.879 23.673 Q 125.621 23.26 126.46 22.021 A 11.035 11.035 0 0 0 127.286 20.551 Q 128.036 18.965 128.64 16.681 A 57.912 57.912 0 0 1 128.798 15.991 A 54.257 54.257 0 0 1 128.8 15.981 Q 128.88 15.641 128.92 15.321 Q 128.327 13.951 127.683 13.318 A 2.725 2.725 0 0 0 127.58 13.221 Q 126.88 12.601 126.2 12.601 A 1.96 1.96 0 0 0 125.119 12.936 Q 124.83 13.124 124.554 13.416 A 4.346 4.346 0 0 0 124.34 13.661 A 7.314 7.314 0 0 0 123.517 14.94 Q 123.198 15.561 122.948 16.297 A 11.903 11.903 0 0 0 122.94 16.321 A 9.976 9.976 0 0 0 122.401 19.421 A 9.477 9.477 0 0 0 122.4 19.521 A 15.503 15.503 0 0 0 122.44 20.67 Q 122.541 22.025 122.9 22.801 Q 123.152 23.345 123.469 23.615 A 1.042 1.042 0 0 0 124.16 23.881 Z M 38.92 22.521 A 1.786 1.786 0 0 0 39.748 22.297 Q 40.568 21.868 41.5 20.621 Q 42.92 18.721 43.76 15.161 Q 43.04 13.601 42.3 12.941 A 3.137 3.137 0 0 0 41.789 12.565 Q 41.299 12.281 40.8 12.281 A 2.087 2.087 0 0 0 39.684 12.615 Q 39.291 12.859 38.92 13.281 A 6.629 6.629 0 0 0 38.059 14.536 A 9.075 9.075 0 0 0 37.5 15.821 Q 36.96 17.361 36.96 19.001 A 8.125 8.125 0 0 0 37.015 19.977 Q 37.135 20.968 37.52 21.601 Q 37.903 22.23 38.417 22.429 A 1.382 1.382 0 0 0 38.92 22.521 Z M 38.44 32.161 A 1.699 1.699 0 0 0 39.382 31.847 Q 40.019 31.424 40.669 30.436 A 11.949 11.949 0 0 0 41.22 29.501 A 13.236 13.236 0 0 0 42.095 27.415 Q 42.833 25.177 43.2 22.001 A 116.426 116.426 0 0 0 41.796 23.942 Q 39.865 26.676 38.98 28.341 A 23.224 23.224 0 0 0 38.52 29.25 Q 37.8 30.762 37.8 31.481 Q 37.8 32.059 38.263 32.146 A 0.966 0.966 0 0 0 38.44 32.161 Z M 12.054 7.193 A 4.27 4.27 0 0 0 13.28 7.361 Q 15 7.361 16.2 6.221 A 4.641 4.641 0 0 0 16.283 6.14 A 3.628 3.628 0 0 0 17.4 3.481 A 4.246 4.246 0 0 0 17.399 3.412 A 3.323 3.323 0 0 0 16.38 1.001 A 3.363 3.363 0 0 0 15.004 0.178 A 4.179 4.179 0 0 0 13.76 0.001 Q 12.04 0.001 10.84 1.161 A 4.768 4.768 0 0 0 10.766 1.234 A 3.692 3.692 0 0 0 9.64 3.921 A 4.228 4.228 0 0 0 9.641 4.013 A 3.254 3.254 0 0 0 10.66 6.381 A 3.379 3.379 0 0 0 12.054 7.193 Z M 23.814 7.193 A 4.27 4.27 0 0 0 25.04 7.361 Q 26.76 7.361 27.96 6.221 A 4.641 4.641 0 0 0 28.043 6.14 A 3.628 3.628 0 0 0 29.16 3.481 A 4.246 4.246 0 0 0 29.159 3.412 A 3.323 3.323 0 0 0 28.14 1.001 A 3.363 3.363 0 0 0 26.764 0.178 A 4.179 4.179 0 0 0 25.52 0.001 Q 23.8 0.001 22.6 1.161 A 4.768 4.768 0 0 0 22.526 1.234 A 3.692 3.692 0 0 0 21.4 3.921 A 4.228 4.228 0 0 0 21.401 4.013 A 3.254 3.254 0 0 0 22.42 6.381 A 3.379 3.379 0 0 0 23.814 7.193 Z M 60.12 32.161 A 1.505 1.505 0 0 0 61.067 31.802 Q 61.598 31.381 62.072 30.467 A 9.05 9.05 0 0 0 62.34 29.901 A 14.226 14.226 0 0 0 62.911 28.303 Q 63.413 26.617 63.768 24.267 A 49.362 49.362 0 0 0 63.88 23.481 Q 61.789 26.16 60.765 27.905 A 14.467 14.467 0 0 0 60.36 28.641 A 18.411 18.411 0 0 0 59.963 29.465 Q 59.4 30.718 59.4 31.361 A 1.295 1.295 0 0 0 59.432 31.663 Q 59.552 32.161 60.12 32.161 Z" vector-effect="non-scaling-stroke"/></g></svg>